<?xml version="1.0" encoding="utf-8"?>
<!-- Generator: Adobe Illustrator 16.0.0, SVG Export Plug-In . SVG Version: 6.00 Build 0)  -->
<!DOCTYPE svg PUBLIC "-//W3C//DTD SVG 1.1//EN" "http://www.w3.org/Graphics/SVG/1.1/DTD/svg11.dtd">
<svg version="1.1" id="Layer_1" xmlns="http://www.w3.org/2000/svg" xmlns:xlink="http://www.w3.org/1999/xlink" x="0px" y="0px"
	 width="833.488px" height="186.764px" viewBox="0 0 833.488 186.764" enable-background="new 0 0 833.488 186.764"
	 xml:space="preserve">
<path fill="#990000" d="M0,76.558h20.585v88.519h29.996v19.628H0V76.558z"/>
<path fill="#990000" d="M144.171,150.519H79.695c0.93,5.686,3.418,10.207,7.462,13.563c4.044,3.359,9.202,5.037,15.476,5.037
	c7.499,0,13.944-2.623,19.335-7.867l16.91,7.939c-4.216,5.981-9.263,10.403-15.145,13.271c-5.882,2.868-12.866,4.302-20.953,4.302
	c-12.547,0-22.767-3.959-30.658-11.874c-7.892-7.916-11.836-17.828-11.836-29.738c0-12.203,3.934-22.337,11.8-30.4
	c7.867-8.062,17.729-12.094,29.591-12.094c12.597,0,22.84,4.032,30.731,12.094c7.891,8.063,11.836,18.71,11.836,31.944
	L144.171,150.519z M124.101,134.712c-1.326-4.46-3.94-8.087-7.843-10.882c-3.904-2.793-8.432-4.189-13.587-4.189
	c-5.597,0-10.507,1.568-14.728,4.705c-2.651,1.96-5.106,5.415-7.365,10.366H124.101z"/>
<path fill="#990000" d="M219.456,104.716h20.07v79.988h-20.07v-8.454c-3.918,3.725-7.847,6.409-11.786,8.051
	c-3.941,1.642-8.213,2.463-12.814,2.463c-10.33,0-19.265-4.009-26.804-12.021c-7.539-8.013-11.308-17.974-11.308-29.886
	c0-12.35,3.646-22.471,10.942-30.363c7.294-7.89,16.154-11.836,26.582-11.836c4.798,0,9.301,0.908,13.511,2.72
	c4.21,1.814,8.102,4.534,11.677,8.16V104.716z M198.357,121.185c-6.206,0-11.358,2.193-15.461,6.579
	c-4.103,4.389-6.155,10.012-6.155,16.873c0,6.91,2.087,12.598,6.264,17.057c4.176,4.46,9.318,6.689,15.425,6.689
	c6.302,0,11.529-2.193,15.68-6.578c4.151-4.388,6.229-10.133,6.229-17.242c0-6.957-2.077-12.594-6.229-16.908
	C209.958,123.342,204.707,121.185,198.357,121.185z"/>
<path fill="#990000" d="M318.853,73.838h20.071v110.866h-20.071v-8.454c-3.917,3.725-7.846,6.409-11.786,8.051
	c-3.941,1.642-8.213,2.463-12.814,2.463c-10.33,0-19.265-4.009-26.803-12.021c-7.539-8.013-11.309-17.974-11.309-29.886
	c0-12.35,3.647-22.471,10.942-30.363c7.294-7.89,16.154-11.836,26.582-11.836c4.797,0,9.301,0.908,13.511,2.72
	c4.21,1.814,8.102,4.534,11.677,8.16V73.838z M297.753,121.185c-6.205,0-11.357,2.193-15.461,6.579
	c-4.103,4.389-6.155,10.012-6.155,16.873c0,6.91,2.087,12.598,6.265,17.057c4.176,4.46,9.317,6.689,15.425,6.689
	c6.301,0,11.528-2.193,15.679-6.578c4.152-4.388,6.229-10.133,6.229-17.242c0-6.957-2.077-12.594-6.229-16.908
	C309.355,123.342,304.104,121.185,297.753,121.185z"/>
<path fill="#990000" d="M408.179,115.891l-12.426,12.423c-5.049-4.997-9.631-7.497-13.748-7.497c-2.254,0-4.019,0.479-5.293,1.434
	c-1.275,0.955-1.911,2.146-1.911,3.565c0,1.079,0.404,2.07,1.213,2.977c0.809,0.907,2.806,2.147,5.991,3.715l7.352,3.675
	c7.744,3.822,13.063,7.721,15.955,11.69c2.892,3.97,4.337,8.627,4.337,13.967c0,7.11-2.61,13.039-7.829,17.794
	c-5.221,4.753-12.217,7.131-20.99,7.131c-11.665,0-20.979-4.56-27.938-13.675l12.352-13.454c2.352,2.745,5.109,4.963,8.271,6.654
	c3.161,1.689,5.966,2.536,8.416,2.536c2.648,0,4.78-0.638,6.398-1.912c1.616-1.274,2.426-2.744,2.426-4.412
	c0-3.088-2.917-6.102-8.75-9.042l-6.764-3.383c-12.939-6.517-19.408-14.679-19.408-24.48c0-6.323,2.437-11.727,7.314-16.212
	c4.877-4.484,11.113-6.727,18.711-6.727c5.195,0,10.084,1.14,14.666,3.419C401.108,108.354,404.992,111.627,408.179,115.891z"/>
<path fill="#990000" d="M470.007,76.558h10.808v45.361h55.067V76.558h10.807v108.146h-10.807v-52.197h-55.067v52.197h-10.808V76.558
	z"/>
<path fill="#333333" d="M704.144,105.375c-0.84,26.219-19.746,47.404-45.979,47.404c-26.23,0-47.449-21.309-47.449-47.538
	c0-5.203,0.857-10.231,2.402-14.915c0,0,3.635,18.743,15.998,27.778l-5.926-0.874c4.705,14.643,18.438,25.238,34.644,25.238
	c20.094,0,37.021-16.297,36.379-36.379c-0.533-16.765-4.451-19.741-14.798-33.17c-8.578-11.135-23.896-13.813-26.393-33.43
	l-1.069-14.361h9.985l1.428,14.361c0,0,1.783,8.512,11.057,15.645C683.696,62.269,704.976,79.339,704.144,105.375z"/>
<path fill="#990000" d="M609.182,102.657c12.323,0,22.534,4.46,30.638,13.38c7.363,8.137,11.047,17.769,11.047,28.895
	c0,11.175-3.892,20.94-11.673,29.298c-7.783,8.357-17.788,12.534-30.012,12.534c-12.276,0-22.305-4.177-30.087-12.534
	c-7.783-8.357-11.673-18.123-11.673-29.298c0-11.076,3.682-20.686,11.048-28.82C586.57,107.142,596.808,102.657,609.182,102.657z
	 M609.143,112.73c-8.558,0-15.91,3.16-22.06,9.483c-6.148,6.322-9.222,13.968-9.222,22.938c0,5.783,1.402,11.173,4.205,16.175
	c2.803,4.997,6.591,8.858,11.363,11.579c4.77,2.721,10.008,4.08,15.713,4.08c5.706,0,10.944-1.359,15.716-4.08
	c4.77-2.721,8.559-6.582,11.361-11.579c2.803-5.002,4.206-10.392,4.206-16.175c0-8.97-3.087-16.615-9.259-22.938
	C624.993,115.891,617.654,112.73,609.143,112.73z"/>
<path fill="#990000" d="M707.77,102.657c12.323,0,22.535,4.46,30.638,13.38c7.364,8.137,11.047,17.769,11.047,28.895
	c0,11.175-3.892,20.94-11.673,29.298c-7.783,8.357-17.788,12.534-30.012,12.534c-12.275,0-22.306-4.177-30.087-12.534
	c-7.783-8.357-11.673-18.123-11.673-29.298c0-11.076,3.681-20.686,11.048-28.82C685.159,107.142,695.397,102.657,707.77,102.657z
	 M707.732,112.73c-8.559,0-15.911,3.16-22.061,9.483c-6.147,6.322-9.223,13.968-9.223,22.938c0,5.783,1.402,11.173,4.206,16.175
	c2.803,4.997,6.591,8.858,11.362,11.579c4.771,2.721,10.009,4.08,15.715,4.08c5.705,0,10.943-1.359,15.716-4.08
	c4.77-2.721,8.558-6.582,11.361-11.579c2.802-5.002,4.204-10.392,4.204-16.175c0-8.97-3.086-16.615-9.258-22.938
	C723.582,115.891,716.242,112.73,707.732,112.73z"/>
<path fill="#990000" d="M768.423,73.838h10.294v63.159l37.082-32.281h15.115l-43.966,38.156l46.539,41.832H819l-40.283-36.014
	v36.014h-10.294V73.838z"/>
<path fill="#333333" d="M679.416,72.92c9.504,12.334,13.581,15.859,14.596,29.342c2.801-2.104,6.186-3.442,9.84-3.691
	c-2.612-22.219-20.989-36.943-29.428-43.436c-9.273-7.133-11.057-15.645-11.057-15.645l-1.428-14.361h-9.985l1.069,14.361
	C655.519,59.106,670.837,61.785,679.416,72.92z"/>
<path fill="#333333" d="M613.751,100.506c0.916,0,1.812,0.092,2.695,0.225c-2.425-5.77-3.328-10.404-3.328-10.404
	c-1.096,3.32-1.837,6.816-2.181,10.423C611.86,100.604,612.794,100.506,613.751,100.506z"/>
<path fill="#333333" d="M688.672,125.819c-6.503,10.014-18.021,16.649-30.838,16.649c-8.346,0-16.032-2.815-22.171-7.542
	c0.014,0.29,0.045,0.576,0.045,0.869c0,3.529-1.041,6.843-2.803,9.681c7.313,4.619,15.969,7.303,25.26,7.303
	c15.924,0,29.139-7.814,37.261-19.814C692.601,131.216,690.252,128.75,688.672,125.819z"/>
<path fill="#333333" d="M674.224,16.98c0,9.377-7.602,16.979-16.98,16.979c-9.377,0-16.979-7.602-16.979-16.979
	c0-9.379,7.602-16.98,16.979-16.98C666.623,0,674.224,7.602,674.224,16.98z M657.244,9.143c-4.688,0-8.489,3.801-8.489,8.49
	s3.802,8.49,8.489,8.49c4.689,0,8.491-3.801,8.491-8.49S661.933,9.143,657.244,9.143z"/>
</svg>
